<svg xmlns="http://www.w3.org/2000/svg" xmlns:xlink="http://www.w3.org/1999/xlink" width="140" zoomAndPan="magnify" viewBox="0 0 104.88 44.999999" height="60" preserveAspectRatio="xMidYMid meet" version="1.0"><defs><g/><clipPath id="a39cb57038"><path d="M 1 0.0273438 L 102 0.0273438 L 102 44.972656 L 1 44.972656 Z M 1 0.0273438 " clip-rule="nonzero"/></clipPath><clipPath id="6bffc5c271"><path d="M 0.4375 33 L 13 33 L 13 44 L 0.4375 44 Z M 0.4375 33 " clip-rule="nonzero"/></clipPath><clipPath id="a66598afa5"><rect x="0" width="101" y="0" height="45"/></clipPath></defs><g clip-path="url(#a39cb57038)"><g transform="matrix(1, 0, 0, 1, 1, -0.ffffff003872)"><g clip-path="url(#a66598afa5)"><g fill="#fff" fill-opacity="1"><g transform="translate(12.706479, 31.257564)"><g><path d="M 25.859375 -20.203125 L 16.8125 -20.203125 C 13.40625 -20.304688 12.90625 -19.363281 15.3125 -17.375 C 19.613281 -13.601562 21.722656 -9.9375 21.640625 -6.375 C 21.554688 -2.8125 19.445312 -0.6875 15.3125 0 L -9.796875 0 L -9.796875 -8.5625 L 6.0625 -8.5625 C 9.820312 -8.457031 10.300781 -9.507812 7.5 -11.71875 C 2.875 -15.96875 0.90625 -19.875 1.59375 -23.4375 C 2.28125 -27 4.457031 -28.78125 8.125 -28.78125 L 25.859375 -28.78125 Z M 25.859375 -20.203125 "/></g></g></g><g fill="#fff" fill-opacity="1"><g transform="translate(35.323547, 31.257564)"><g><path d="M 18.375 -12.203125 L 15.34375 0 L 5.984375 0 L -2.796875 -28.78125 L 6.578125 -28.78125 L 10.515625 -16.34375 L 13.953125 -28.78125 L 22.5625 -28.78125 L 26.5625 -16.34375 L 29.234375 -28.78125 L 38.59375 -28.78125 L 31.390625 0 L 22.015625 0 Z M 18.375 -12.203125 "/></g></g></g><g fill="#fff" fill-opacity="1"><g transform="translate(71.192025, 31.257564)"><g><path d="M 9.5625 -28.78125 L 9.5625 -11.75 C 9.488281 -9.8125 9.863281 -8.460938 10.6875 -7.703125 C 11.507812 -6.953125 12.796875 -6.550781 14.546875 -6.5 C 15.953125 -6.519531 17.125 -6.925781 18.0625 -7.71875 C 19.007812 -8.519531 19.457031 -9.863281 19.40625 -11.75 L 19.40625 -28.78125 L 28.78125 -28.78125 L 28.78125 -11.890625 C 28.738281 -9.503906 28.34375 -7.597656 27.59375 -6.171875 C 26.84375 -4.742188 25.890625 -3.550781 24.734375 -2.59375 C 23.585938 -1.632812 22.144531 -0.890625 20.40625 -0.359375 C 18.675781 0.171875 16.75 0.460938 14.625 0.515625 C 12.863281 0.472656 11.066406 0.234375 9.234375 -0.203125 C 7.410156 -0.648438 5.816406 -1.351562 4.453125 -2.3125 C 3.085938 -3.269531 2.035156 -4.5 1.296875 -6 C 0.566406 -7.5 0.203125 -9.457031 0.203125 -11.875 L 0.203125 -28.78125 Z M 9.5625 -28.78125 "/></g></g></g><g clip-path="url(#6bffc5c271)"><g fill="#fff" fill-opacity="1"><g transform="translate(4.143212, 43.024722)"><g><path d="M 8.828125 -6.890625 L 5.734375 -6.890625 C 4.566406 -6.929688 4.394531 -6.609375 5.21875 -5.921875 C 6.6875 -4.640625 7.40625 -3.390625 7.375 -2.171875 C 7.351562 -0.960938 6.632812 -0.238281 5.21875 0 L -3.34375 0 L -3.34375 -2.921875 L 2.0625 -2.921875 C 3.34375 -2.890625 3.507812 -3.25 2.5625 -4 C 0.976562 -5.445312 0.300781 -6.773438 0.53125 -7.984375 C 0.769531 -9.203125 1.519531 -9.8125 2.78125 -9.8125 L 8.828125 -9.8125 Z M 8.828125 -6.890625 "/></g></g></g></g><g fill="#fff" fill-opacity="1"><g transform="translate(11.859499, 43.024722)"><g><path d="M 0.40625 0 L 0.40625 -6.890625 L -1.625 -6.890625 L -1.625 -9.8125 L 8.828125 -9.8125 L 8.828125 -6.890625 L 3.609375 -6.890625 L 3.609375 -5.765625 L 6.96875 -5.765625 L 6.96875 -4.046875 L 3.609375 -4.046875 L 3.609375 -2.921875 L 9.65625 -2.921875 L 9.65625 0 Z M 0.40625 0 "/></g></g></g><g fill="#fff" fill-opacity="1"><g transform="translate(21.105442, 43.024722)"><g><path d="M 5.125 -7.640625 L 3.71875 -3.75 L 6.4375 -3.75 Z M -0.6875 -6.890625 L -0.6875 -9.8125 L 7.5625 -9.8125 L 10.84375 0 L 7.125 0 L 6.515625 -1.765625 L 3.59375 -1.765625 L 2.984375 0 L -0.546875 0 L 1.71875 -6.890625 Z M -0.6875 -6.890625 "/></g></g></g><g fill="#fff" fill-opacity="1"><g transform="translate(31.405155, 43.024722)"><g><path d="M 0.40625 0 L 0.40625 -6.890625 L -1.625 -6.890625 L -1.625 -9.8125 L 3.609375 -9.8125 L 3.609375 -2.921875 L 8.921875 -2.921875 L 8.921875 0 Z M 0.40625 0 "/></g></g></g><g fill="#fff" fill-opacity="1"><g transform="translate(40.324771, 43.024722)"><g><path d="M 0.40625 0 L 0.40625 -6.890625 L -1.625 -6.890625 L -1.625 -9.8125 L 8.828125 -9.8125 L 8.828125 -6.890625 L 3.609375 -6.890625 L 3.609375 -5.765625 L 6.96875 -5.765625 L 6.96875 -4.046875 L 3.609375 -4.046875 L 3.609375 -2.921875 L 9.65625 -2.921875 L 9.65625 0 Z M 0.40625 0 "/></g></g></g><g fill="#fff" fill-opacity="1"><g transform="translate(49.570714, 43.024722)"><g><path d="M 0.40625 0 L 0.40625 -6.890625 L -1.625 -6.890625 L -1.625 -9.8125 L 6.203125 -9.8125 C 6.984375 -9.8125 7.671875 -9.707031 8.265625 -9.5 C 8.867188 -9.289062 9.375 -9.007812 9.78125 -8.65625 C 10.195312 -8.300781 10.539062 -7.820312 10.8125 -7.21875 C 11.09375 -6.625 11.234375 -5.84375 11.234375 -4.875 C 11.179688 -3.976562 11.03125 -3.21875 10.78125 -2.59375 C 10.53125 -1.96875 10.195312 -1.472656 9.78125 -1.109375 C 9.375 -0.753906 8.867188 -0.472656 8.265625 -0.265625 C 7.671875 -0.0664062 6.925781 0.0195312 6.03125 0 Z M 3.6875 -7.375 L 3.6875 -2.453125 L 5.546875 -2.453125 C 5.972656 -2.453125 6.316406 -2.539062 6.578125 -2.71875 C 6.835938 -2.894531 7.046875 -3.125 7.203125 -3.40625 C 7.367188 -3.6875 7.472656 -4.1875 7.515625 -4.90625 C 7.503906 -5.570312 7.410156 -6.0625 7.234375 -6.375 C 7.066406 -6.6875 6.847656 -6.929688 6.578125 -7.109375 C 6.316406 -7.285156 5.972656 -7.375 5.546875 -7.375 Z M 3.6875 -7.375 "/></g></g></g><g fill="#fff" fill-opacity="1"><g transform="translate(60.869802, 43.024722)"><g><path d="M 1.0625 0 L 1.0625 -2.703125 L 4.09375 -2.703125 L 4.09375 0 Z M 1.0625 0 "/></g></g></g><g fill="#fff" fill-opacity="1"><g transform="translate(66.023056, 43.024722)"><g><path d="M 7.015625 -2.921875 L 10.09375 -2.921875 L 10.09375 0 L 5.734375 0 C 4.671875 0 3.707031 -0.1875 2.84375 -0.5625 C 1.988281 -0.945312 1.3125 -1.515625 0.8125 -2.265625 C 0.3125 -3.023438 0.0625 -3.953125 0.0625 -5.046875 C 0.0625 -5.816406 0.207031 -6.503906 0.5 -7.109375 C 0.800781 -7.710938 1.210938 -8.210938 1.734375 -8.609375 C 2.265625 -9.015625 2.867188 -9.316406 3.546875 -9.515625 C 4.234375 -9.710938 4.960938 -9.8125 5.734375 -9.8125 L 10.09375 -9.8125 L 10.09375 -6.890625 L 7.015625 -6.890625 C 6.328125 -6.890625 5.816406 -6.867188 5.484375 -6.828125 C 5.148438 -6.785156 4.851562 -6.71875 4.59375 -6.625 C 4.34375 -6.53125 4.113281 -6.363281 3.90625 -6.125 C 3.707031 -5.894531 3.59375 -5.476562 3.5625 -4.875 C 3.59375 -4.300781 3.710938 -3.890625 3.921875 -3.640625 C 4.128906 -3.390625 4.378906 -3.222656 4.671875 -3.140625 C 4.972656 -3.054688 5.28125 -3 5.59375 -2.96875 C 5.914062 -2.9375 6.390625 -2.921875 7.015625 -2.921875 Z M 7.015625 -2.921875 "/></g></g></g><g fill="#fff" fill-opacity="1"><g transform="translate(76.112012, 43.024722)"><g><path d="M 11.34375 -4.859375 C 11.34375 -3.785156 11.117188 -2.867188 10.671875 -2.109375 C 10.222656 -1.347656 9.570312 -0.773438 8.71875 -0.390625 C 7.863281 -0.015625 6.847656 0.171875 5.671875 0.171875 C 4.492188 0.171875 3.484375 -0.0195312 2.640625 -0.40625 C 1.796875 -0.789062 1.15625 -1.359375 0.71875 -2.109375 C 0.28125 -2.859375 0.0625 -3.773438 0.0625 -4.859375 C 0.0625 -5.671875 0.1875 -6.390625 0.4375 -7.015625 C 0.6875 -7.640625 1.050781 -8.164062 1.53125 -8.59375 C 2.007812 -9.019531 2.597656 -9.34375 3.296875 -9.5625 C 3.992188 -9.78125 4.785156 -9.890625 5.671875 -9.890625 C 6.847656 -9.890625 7.863281 -9.695312 8.71875 -9.3125 C 9.570312 -8.925781 10.222656 -8.351562 10.671875 -7.59375 C 11.117188 -6.84375 11.34375 -5.929688 11.34375 -4.859375 Z M 3.5625 -4.828125 C 3.5625 -4.191406 3.703125 -3.640625 3.984375 -3.171875 C 4.265625 -2.710938 4.820312 -2.484375 5.65625 -2.484375 C 6.300781 -2.484375 6.78125 -2.601562 7.09375 -2.84375 C 7.414062 -3.09375 7.613281 -3.375 7.6875 -3.6875 C 7.769531 -4 7.828125 -4.378906 7.859375 -4.828125 C 7.828125 -5.453125 7.671875 -6 7.390625 -6.46875 C 7.117188 -6.9375 6.539062 -7.171875 5.65625 -7.171875 C 4.257812 -7.171875 3.5625 -6.390625 3.5625 -4.828125 Z M 3.5625 -4.828125 "/></g></g></g><g fill="#fff" fill-opacity="1"><g transform="translate(87.513079, 43.024722)"><g><path d="M 0.265625 0 L 0.265625 -9.8125 L 3.46875 -9.8125 L 5.609375 -5.734375 L 7.75 -9.8125 L 10.9375 -9.8125 L 10.9375 0 L 7.75 0 L 7.75 -4.078125 L 5.703125 0 L 5.515625 0 L 3.46875 -4.078125 L 3.46875 0 Z M 0.265625 0 "/></g></g></g></g></g></g></svg>
